<?xml version="1.0" ?><svg id="图层_1" style="enable-background:new -239 241 32 32;" version="1.1" viewBox="-239 241 32 32" xml:space="preserve" xmlns="http://www.w3.org/2000/svg" xmlns:xlink="http://www.w3.org/1999/xlink"><style type="text/css">
	.st0{fill:#F42F42;}
	.st1{opacity:0.2038;fill:#332E0A;enable-background:new    ;}
	.st2{fill:none;stroke:#0A2933;stroke-linejoin:round;}
	.st3{fill:none;stroke:#FFFFFF;stroke-linecap:round;stroke-linejoin:round;stroke-dasharray:1,2,6,2,3;}
</style><path class="st0" d="M-224.6,265.9l0.4-1l-5.4-13.5c-0.3-0.8-0.5-1.3-0.5-1.7c0-0.4,0.1-0.7,0.3-1c0.2-0.3,0.5-0.6,0.8-0.8  c0.3-0.2,0.7-0.3,1-0.3c0.6,0,1.1,0.2,1.4,0.6c0.3,0.4,0.6,1,0.8,1.7l3.7,10.8l3.5-10c0.3-0.8,0.5-1.4,0.8-1.9s0.5-0.8,0.7-0.9  s0.6-0.2,1.1-0.2c0.3,0,0.6,0.1,1,0.3c0.3,0.2,0.5,0.4,0.7,0.7c0.2,0.3,0.2,0.6,0.2,0.9c0,0.2-0.1,0.5-0.2,0.9  c-0.1,0.4-0.2,0.8-0.4,1.1l-5.7,14.9c-0.5,1.3-1,2.3-1.4,3.1c-0.5,0.7-1.1,1.3-1.9,1.7c-0.8,0.4-1.8,0.6-3.1,0.6  c-1.3,0-2.2-0.1-2.9-0.4c-0.6-0.3-1-0.8-1-1.5c0-0.5,0.2-0.9,0.5-1.2s0.8-0.4,1.4-0.4c0.2,0,0.5,0,0.7,0.1c0.3,0.1,0.5,0.1,0.7,0.1  c0.5,0,0.9-0.1,1.2-0.2s0.5-0.4,0.8-0.8S-224.9,266.6-224.6,265.9z"/><path class="st1" d="M-219.3,263.9l-0.9,2.5c-0.5,1.3-1,2.3-1.4,3.1c-0.5,0.7-1.1,1.3-1.9,1.7  c-0.8,0.4-1.8,0.6-3.1,0.6c-1.3,0-2.2-0.1-2.9-0.4c-0.6-0.3-1-0.8-1-1.5c0-0.4,0.1-0.7,0.3-1c0.2,0.2,0.4,0.4,0.7,0.5  c0.6,0.3,1.6,0.4,2.9,0.4c1.3,0,2.4-0.2,3.1-0.6c0.8-0.4,1.4-1,1.9-1.7c0.5-0.7,0.9-1.8,1.4-3.1L-219.3,263.9z" id="Combined-Shape"/><path class="st2" d="M-224.6,265.9l0.4-1l-5.4-13.5c-0.3-0.8-0.5-1.3-0.5-1.7c0-0.4,0.1-0.7,0.3-1c0.2-0.3,0.5-0.6,0.8-0.8  c0.3-0.2,0.7-0.3,1-0.3c0.6,0,1.1,0.2,1.4,0.6c0.3,0.4,0.6,1,0.8,1.7l3.7,10.8l3.5-10c0.3-0.8,0.5-1.4,0.8-1.9s0.5-0.8,0.7-0.9  s0.6-0.2,1.1-0.2c0.3,0,0.6,0.1,1,0.3c0.3,0.2,0.5,0.4,0.7,0.7c0.2,0.3,0.2,0.6,0.2,0.9c0,0.2-0.1,0.5-0.2,0.9  c-0.1,0.4-0.2,0.8-0.4,1.1l-5.7,14.9c-0.5,1.3-1,2.3-1.4,3.1c-0.5,0.7-1.1,1.3-1.9,1.7c-0.8,0.4-1.8,0.6-3.1,0.6  c-1.3,0-2.2-0.1-2.9-0.4c-0.6-0.3-1-0.8-1-1.5c0-0.5,0.2-0.9,0.5-1.2s0.8-0.4,1.4-0.4c0.2,0,0.5,0,0.7,0.1c0.3,0.1,0.5,0.1,0.7,0.1  c0.5,0,0.9-0.1,1.2-0.2s0.5-0.4,0.8-0.8S-224.9,266.6-224.6,265.9z"/><path class="st3" d="M-217,251l-2,6" id="Path-27"/></svg>